<svg width="240" height="134" viewBox="0 0 240 134" fill="none" xmlns="http://www.w3.org/2000/svg">
<path  fill="#313131" d="M44.0577 120H37.2071V87.1621H56.0294V92.8672H44.0577V101.335H55.1983V107.018H44.0577V120ZM89.1817 87.1621V108.41C89.1817 110.671 88.6801 112.715 87.6768 114.542C86.6886 116.354 85.1837 117.791 83.1622 118.854C81.1557 119.918 78.6251 120.449 75.5704 120.449C71.2279 120.449 67.9187 119.341 65.6427 117.125C63.3666 114.909 62.2286 111.974 62.2286 108.32V87.1621H69.169V107.265C69.169 109.975 69.7231 111.877 70.8311 112.97C71.9392 114.063 73.5789 114.609 75.7501 114.609C77.2774 114.609 78.5128 114.347 79.4561 113.823C80.4145 113.299 81.1182 112.491 81.5675 111.397C82.0167 110.304 82.2413 108.912 82.2413 107.22V87.1621H89.1817ZM109.891 120H102.928V92.957H94.0108V87.1621H118.808V92.957H109.891V120ZM150.59 87.1621V108.41C150.59 110.671 150.088 112.715 149.085 114.542C148.097 116.354 146.592 117.791 144.57 118.854C142.564 119.918 140.033 120.449 136.979 120.449C132.636 120.449 129.327 119.341 127.051 117.125C124.775 114.909 123.637 111.974 123.637 108.32V87.1621H130.577V107.265C130.577 109.975 131.131 111.877 132.239 112.97C133.347 114.063 134.987 114.609 137.158 114.609C138.686 114.609 139.921 114.347 140.864 113.823C141.823 113.299 142.526 112.491 142.976 111.397C143.425 110.304 143.649 108.912 143.649 107.22V87.1621H150.59ZM168.199 87.1621C171.179 87.1621 173.635 87.5215 175.566 88.2402C177.513 88.959 178.958 90.0446 179.901 91.4971C180.845 92.9495 181.316 94.7839 181.316 97C181.316 98.4974 181.032 99.8076 180.463 100.931C179.894 102.054 179.145 103.005 178.217 103.783C177.288 104.562 176.285 105.198 175.207 105.692L184.865 120H177.139L169.3 107.399H165.594V120H158.631V87.1621H168.199ZM167.705 92.8672H165.594V101.739H167.84C170.146 101.739 171.793 101.357 172.781 100.594C173.785 99.8151 174.286 98.6771 174.286 97.1797C174.286 95.6224 173.747 94.5143 172.669 93.8555C171.606 93.1966 169.951 92.8672 167.705 92.8672ZM207.91 120H188.998V87.1621H207.91V92.8672H195.961V100.077H207.079V105.782H195.961V114.25H207.91V120Z"/>
<path d="M64.0986 26.0986L65.5459 26.0225C65.9775 26.0225 66.46 26.2129 66.9932 26.5938C67.5518 26.9746 67.8311 27.3047 67.8311 27.584C67.7041 28.1426 64.708 33.2461 58.8428 42.8945C40.5361 72.9824 30.4561 89.9561 28.6025 93.8154C29.542 92.8252 30.5703 91.8477 31.6875 90.8828C32.8301 89.9434 33.4648 89.4736 33.5918 89.4736C33.7441 89.4736 33.8965 89.5498 34.0488 89.7021C34.2012 89.8799 34.2773 90.0449 34.2773 90.1973C34.2773 90.375 34.1631 90.5908 33.9346 90.8447C33.7061 91.0986 32.9062 92.1016 31.5352 93.8535C30.1895 95.6309 29.1865 96.8877 28.5264 97.624C27.8662 98.3857 27.2695 99.1855 26.7363 100.023C26.2285 100.887 25.7842 101.496 25.4033 101.852C25.0479 102.207 24.6035 102.385 24.0703 102.385C22.5215 102.385 21.2139 101.712 20.1475 100.366C19.1064 99.0459 18.5859 97.9287 18.5859 97.0146C18.5859 95.2373 22.3564 88.3057 29.8975 76.2197C37.4639 64.1338 44.1289 53.9902 49.8926 45.7891C36.5625 61.5312 25.9492 71.8652 18.0527 76.791C15.3105 78.5176 13.0762 79.3809 11.3496 79.3809C10.5117 79.3809 9.67383 79.1396 8.83594 78.6572C8.02344 78.1748 7.42676 77.5654 7.0459 76.8291C6.69043 76.0928 6.5127 74.7852 6.5127 72.9062C6.5127 71.002 7.3252 68.2852 8.9502 64.7559C10.5752 61.2012 12.6699 57.4053 15.2344 53.3682C19.7793 46.1572 23.9688 39.9873 27.8027 34.8584C24.4004 37.9307 21.6201 39.4668 19.4619 39.4668C18.4717 39.4668 17.8115 39.3271 17.4814 39.0479C17.1768 38.7432 16.7451 38.2861 16.1865 37.6768C15.6533 37.042 15.3867 36.3564 15.3867 35.6201C15.3867 34.8584 15.5137 34.2617 15.7676 33.8301C16.0469 33.3984 16.3008 33.0684 16.5293 32.8398C17.3926 31.9766 17.9512 31.4688 18.2051 31.3164C18.459 31.1641 18.7637 31.0879 19.1191 31.0879C19.5 31.0879 19.6904 31.1514 19.6904 31.2783C19.6904 31.3799 19.5508 31.5449 19.2715 31.7734C19.0176 32.002 18.8906 32.1797 18.8906 32.3066C18.8906 32.4336 19.0303 32.4971 19.3096 32.4971C19.5889 32.4971 19.9443 32.4336 20.376 32.3066C20.8076 32.1543 21.3662 31.9004 22.0518 31.5449C22.7627 31.1641 23.3975 30.8213 23.9561 30.5166C24.54 30.1865 25.4033 29.6914 26.5459 29.0312C27.6885 28.3457 28.5518 27.8379 29.1357 27.5078C29.7451 27.1777 30.6211 26.5938 31.7637 25.7559C32.9316 24.8926 33.7949 24.3086 34.3535 24.0039C35.293 23.4453 36.0547 23.2803 36.6387 23.5088C37.248 23.7373 37.7178 23.8896 38.0479 23.9658C38.4033 24.042 38.708 24.1562 38.9619 24.3086C39.2412 24.4355 39.4951 24.5879 39.7236 24.7656C40.5107 25.3242 40.9043 25.9844 40.9043 26.7461C40.9043 27.4824 40.5361 28.3457 39.7998 29.3359C39.0889 30.3262 37.4766 32.6748 34.9629 36.3818C32.4492 40.0635 29.6055 44.3037 26.4316 49.1025C23.2832 53.876 20.5029 58.3574 18.0908 62.5469C15.7041 66.7363 14.5107 69.377 14.5107 70.4688C14.5107 70.8496 14.6123 71.04 14.8154 71.04C15.0186 71.04 15.7676 70.5449 17.0625 69.5547C23.8672 64.2988 32.5381 56.0596 43.0752 44.8369C51.7334 35.6201 56.8369 29.9199 58.3857 27.7363C58.8682 27.0762 59.3379 26.6318 59.7949 26.4033C60.2773 26.1748 61.001 26.0605 61.9658 26.0605L64.0986 26.0986ZM80.0947 49.9785C80.8564 49.9785 81.6309 50.3213 82.418 51.0068C83.2305 51.6924 83.6367 52.7461 83.6367 54.168C83.6367 55.5645 83.1416 57.3926 82.1514 59.6523C81.1611 61.8867 79.8027 64.1719 78.0762 66.5078C76.3496 68.8184 74.4453 71.002 72.3633 73.0586C70.3066 75.0898 68.0723 76.7656 65.6602 78.0859C63.2734 79.3809 61.1025 80.0283 59.1475 80.0283C57.1924 80.0283 55.6182 79.4189 54.4248 78.2002C53.2568 76.9561 52.6729 75.2422 52.6729 73.0586C52.6729 70.8496 53.2061 68.4121 54.2725 65.7461C55.3643 63.0801 56.7607 60.7314 58.4619 58.7002C60.1631 56.6436 62.0039 54.8027 63.9844 53.1777C68.123 49.8516 71.7539 48.1885 74.877 48.1885C76.2734 48.1885 77.3271 48.5312 78.0381 49.2168C78.292 49.4453 78.4189 49.6484 78.4189 49.8262V50.0547C78.7744 50.0039 79.333 49.9785 80.0947 49.9785ZM76.248 55.0439H75.9814C75.0928 55.0439 74.6484 54.3965 74.6484 53.1016C72.7949 53.7109 70.8525 54.7773 68.8213 56.3008C66.79 57.8242 64.9746 59.627 63.375 61.709C60.125 65.873 58.4746 69.3896 58.4238 72.2588C58.4238 73.6807 58.9443 74.3916 59.9854 74.3916C61.0264 74.3916 62.5752 73.7061 64.6318 72.335C66.6885 70.9639 68.7197 69.0088 70.7256 66.4697C72.7568 63.9307 74.2676 61.7344 75.2578 59.8809C76.2734 58.002 76.7812 56.7324 76.7812 56.0723C76.7812 55.3867 76.6035 55.0439 76.248 55.0439ZM115.058 67.041C115.54 67.041 115.832 67.4092 115.934 68.1455C116.035 68.8818 116.086 69.6436 116.086 70.4307C116.086 71.2178 116.01 71.7637 115.857 72.0684C115.121 73.4902 113.509 75.2295 111.021 77.2861C108.532 79.3174 106.171 80.333 103.937 80.333C102.565 80.333 101.296 79.9141 100.128 79.0762C98.96 78.2637 98.376 76.8291 98.376 74.7725C98.376 72.7158 98.9219 70.6973 100.014 68.7168C93.7168 76.6133 88.7783 80.5615 85.1982 80.5615C83.7764 80.5615 82.6211 80.0537 81.7324 79.0381C80.8691 78.0225 80.4375 76.9814 80.4375 75.915C80.4375 74.8232 80.5898 73.7061 80.8945 72.5635C81.1992 71.3955 81.5166 70.3545 81.8467 69.4404C82.2021 68.5264 82.71 67.3965 83.3701 66.0508C84.0557 64.7051 84.5635 63.7275 84.8936 63.1182C85.2236 62.5088 85.7441 61.5947 86.4551 60.376C87.1914 59.1318 88.1436 57.4688 89.3115 55.3867C90.5049 53.3047 91.4824 51.7686 92.2441 50.7783C93.0312 49.7627 93.793 49.2549 94.5293 49.2549C95.2656 49.2295 95.9131 49.5215 96.4717 50.1309C97.0303 50.7402 97.3096 51.2354 97.3096 51.6162C97.3096 51.9971 96.459 53.7109 94.7578 56.7578C89.7305 65.8477 87.2168 71.1416 87.2168 72.6396C87.2168 73.0205 87.3564 73.2109 87.6357 73.2109C88.8545 73.2109 91.8887 70.5703 96.7383 65.2891C101.588 60.0078 104.394 56.6309 105.155 55.1582C105.917 53.6602 106.653 52.4033 107.364 51.3877C108.101 50.3721 108.646 49.75 109.002 49.5215C110.094 48.8105 111.503 48.4297 113.229 48.3789C113.509 48.3789 113.725 48.3916 113.877 48.417C114.029 48.4424 114.207 48.6582 114.41 49.0645C114.613 49.4707 114.715 49.7881 114.715 50.0166C114.486 50.7275 113.471 52.6191 111.668 55.6914C109.891 58.7637 108.9 60.5029 108.697 60.9092C105.701 67.1045 104.203 71.1416 104.203 73.0205C104.203 74.0869 104.609 74.6201 105.422 74.6201C106.895 74.417 108.672 73.2363 110.754 71.0781C111.516 70.291 112.265 69.4912 113.001 68.6787C113.763 67.8662 114.232 67.3965 114.41 67.2695C114.588 67.1172 114.804 67.041 115.058 67.041ZM126.103 58.2432C132.095 51.4385 137.198 48.0361 141.413 48.0361C142.454 48.0361 143.305 48.3535 143.965 48.9883C144.65 49.5977 144.993 50.3975 144.993 51.3877C144.993 52.3779 144.282 54.041 142.86 56.377C141.464 58.6875 140.169 60.6426 138.976 62.2422C138.341 63.0547 137.617 63.4609 136.805 63.4609C136.018 63.4609 135.396 63.1689 134.938 62.585C134.507 62.001 134.291 61.3154 134.291 60.5283C134.291 58.7764 135.23 56.7959 137.109 54.5869L137.033 54.5107C136.195 54.5869 134.113 56.2373 130.787 59.4619C127.486 62.6865 124.668 65.5811 122.332 68.1455C120.021 70.6846 117.508 73.7822 114.791 77.4385C114.004 78.5303 113.331 79.0762 112.772 79.0762C112.239 79.0762 111.528 78.9111 110.64 78.5811C109.726 78.2256 109.18 77.9717 109.002 77.8193C108.799 77.667 108.697 77.4131 108.697 77.0576C108.697 76.7021 108.799 76.2959 109.002 75.8389C109.205 75.3564 109.586 74.6836 110.145 73.8203C110.678 72.957 111.49 71.5605 112.582 69.6309C113.699 67.7012 115.426 64.7812 117.762 60.8711C120.098 56.9609 121.494 54.5996 121.951 53.7871C122.916 52.1113 123.703 50.8926 124.312 50.1309C125.455 48.6836 127.385 47.96 130.102 47.96C130.711 47.96 131.016 48.3408 131.016 49.1025C131.016 50.2959 129.911 52.543 127.702 55.8438L126.103 58.2432Z" fill="#4B87FF"/>
<path d="M238.771 98.455L229.565 89.111C232.195 85.2206 233.293 80.4979 232.648 75.8493C232.003 71.2007 229.659 66.9536 226.068 63.9231C222.477 60.8926 217.89 59.2922 213.188 59.4289C208.487 59.5657 204.001 61.43 200.593 64.6642C197.185 67.8983 195.094 72.2744 194.721 76.9526C194.348 81.6308 195.72 86.2816 198.573 90.0125C201.426 93.7434 205.56 96.2915 210.181 97.1679C214.802 98.0443 219.584 97.1871 223.61 94.761L232.969 104.248C233.349 104.634 233.802 104.94 234.301 105.15C234.801 105.36 235.337 105.47 235.879 105.472C236.42 105.474 236.957 105.369 237.458 105.163C237.959 104.958 238.415 104.655 238.798 104.272C239.181 103.89 239.485 103.436 239.691 102.936C239.897 102.436 240.002 101.9 240 101.36C239.998 100.819 239.888 100.284 239.678 99.7859C239.467 99.2877 239.16 98.8361 238.773 98.457L238.771 98.455ZM213.752 88.322C211.808 88.322 209.908 87.7468 208.291 86.6692C206.675 85.5916 205.415 84.06 204.671 82.268C203.927 80.476 203.733 78.5041 204.112 76.6018C204.491 74.6994 205.427 72.9519 206.802 71.5804C208.177 70.2089 209.928 69.2748 211.835 68.8964C213.741 68.518 215.718 68.7122 217.514 69.4545C219.31 70.1968 220.845 71.4538 221.925 73.0665C223.005 74.6793 223.581 76.5754 223.581 78.515C223.581 81.116 222.546 83.6104 220.702 85.4496C218.859 87.2888 216.359 88.322 213.752 88.322V88.322Z" fill="#4B87FF"/>
<path fill="#4B87FF" d="M197.751 62.551C199.146 61.1686 200.714 59.9726 202.417 58.993C200.116 55.4366 196.774 52.6734 192.844 51.079C192.472 50.9192 192.155 50.6541 191.932 50.3164C191.71 49.9787 191.591 49.5832 191.591 49.179V49.179C191.589 48.8902 191.646 48.6039 191.759 48.338C191.872 48.072 192.038 47.8321 192.248 47.633C192.376 47.511 192.498 47.391 192.591 47.295C194.468 45.3214 195.669 42.8042 196.021 40.1059C196.373 37.4077 195.857 34.6677 194.548 32.2805C193.24 29.8934 191.205 27.9822 188.739 26.8222C186.272 25.6623 183.499 25.3135 180.821 25.826C178.333 26.2607 176.033 27.4323 174.221 29.1887C172.409 30.945 171.168 33.2047 170.66 35.674C170.192 37.8007 170.272 40.0114 170.894 42.0987C171.516 44.1859 172.659 46.0813 174.216 47.607C174.428 47.8067 174.597 48.0466 174.714 48.3124C174.831 48.5782 174.893 48.8647 174.898 49.155V49.166C174.902 49.5734 174.785 49.9728 174.562 50.3142C174.339 50.6556 174.02 50.9237 173.645 51.085C168.511 53.2054 164.416 57.2524 162.241 62.355C160.713 65.8503 159.947 69.6298 159.993 73.443V76.191C159.993 77.3802 160.467 78.5208 161.31 79.3617C162.153 80.2026 163.296 80.675 164.488 80.675H191.237C190.914 77.3621 191.331 74.0191 192.458 70.8862C193.584 67.7532 195.392 64.908 197.751 62.555V62.551ZM188.672 43.443C188.006 44.1576 187.204 44.7314 186.311 45.1299C185.419 45.5285 184.456 45.7438 183.478 45.763C181.42 45.7047 179.458 44.8766 177.983 43.443C177.68 43.1339 177.511 42.7188 177.511 42.2868C177.512 41.8547 177.682 41.4399 177.985 41.1313C178.288 40.8227 178.7 40.6447 179.133 40.6355C179.566 40.6262 179.985 40.7865 180.301 41.082C180.685 41.4994 181.152 41.8326 181.673 42.0608C182.193 42.289 182.754 42.4071 183.323 42.4076C183.891 42.4082 184.453 42.2912 184.973 42.0641C185.494 41.8369 185.961 41.5046 186.347 41.088C186.502 40.9357 186.685 40.8153 186.887 40.7337C187.088 40.6522 187.304 40.611 187.522 40.6126C187.739 40.6143 187.954 40.6586 188.155 40.7432C188.355 40.8278 188.537 40.9509 188.689 41.1055C188.842 41.2601 188.963 41.4433 189.044 41.6444C189.126 41.8456 189.167 42.0608 189.166 42.2779C189.164 42.4949 189.12 42.7095 189.035 42.9095C188.95 43.1094 188.827 43.2907 188.672 43.443V43.443Z"/>
</svg>
